<svg width="130" height="29" viewBox="0 0 130 29" xmlns="http://www.w3.org/2000/svg"><title>Deploy to now</title><defs><linearGradient x1="164.261%" y1="228.815%" x2="50%" y2="50%" id="a"><stop offset="0%"/><stop stop-color="#FFF" offset="100%"/></linearGradient></defs><g fill="none" fill-rule="evenodd"><rect fill="#000" width="130" height="29" rx="4"/><path fill="#FFF" d="M117.45 12.537h-1.692l-.96 4.635h-.107l-1.135-4.635h-1.63l-1.13 4.635h-.106l-.96-4.635H108L109.723 19h1.793l1.142-4.46h.106l1.154 4.46h1.816M104.19 19.14c-1.985 0-3.18-1.26-3.18-3.374 0-2.092 1.213-3.37 3.18-3.37 1.97 0 3.183 1.272 3.183 3.37 0 2.115-1.195 3.375-3.182 3.375zm0-1.394c.91 0 1.43-.726 1.43-1.98 0-1.243-.526-1.975-1.43-1.975-.907 0-1.428.733-1.428 1.976 0 1.26.515 1.98 1.43 1.98zM93.797 19h1.705v-3.727c0-.85.486-1.406 1.277-1.406.808 0 1.19.47 1.19 1.36V19h1.704v-4.178c0-1.547-.774-2.426-2.21-2.426-.954 0-1.61.452-1.91 1.178h-.105v-1.037h-1.653V19z"/><path d="M86.01 19.11c-1.8 0-2.912-1.24-2.912-3.268 0-2.033 1.113-3.27 2.912-3.27 1.8 0 2.912 1.237 2.912 3.27 0 2.027-1.113 3.27-2.912 3.27zm0-.907c1.195 0 1.87-.867 1.87-2.36 0-1.5-.675-2.363-1.87-2.363-1.196 0-1.87.862-1.87 2.362 0 1.494.674 2.36 1.87 2.36zM79.564 11.05v1.634h-1.02v.843h1.02v3.832c0 1.206.522 1.687 1.823 1.687.2 0 .392-.024.592-.06v-.848c-.19.016-.29.022-.47.022-.656 0-.938-.316-.938-1.06v-3.575h1.407v-.843H80.57V11.05h-1.008z" fill="#C0C0C0"/><path d="M69.3 21.35c1.61 0 2.4-.586 2.952-2.25l2.227-6.563h-1.806l-1.36 4.9h-.105l-1.36-4.9h-1.88l2.266 6.504-.058.235c-.14.493-.504.698-1.143.698-.07 0-.328 0-.387-.012v1.372c.07.012.586.018.65.018zM64.19 19.14c-1.987 0-3.182-1.26-3.182-3.374 0-2.092 1.213-3.37 3.18-3.37 1.97 0 3.183 1.272 3.183 3.37 0 2.115-1.194 3.375-3.18 3.375zm0-1.394c.908 0 1.43-.726 1.43-1.98 0-1.243-.528-1.975-1.43-1.975-.91 0-1.43.733-1.43 1.976 0 1.26.515 1.98 1.43 1.98zM57.85 19h1.705v-8.93H57.85M53.766 12.432c1.634 0 2.636 1.242 2.636 3.334 0 2.086-.99 3.334-2.607 3.334-.926 0-1.635-.405-1.95-1.09h-.107v3.135h-1.705v-8.608h1.653v1.06h.105c.353-.726 1.085-1.165 1.976-1.165zm-.58 5.244c.92 0 1.464-.715 1.464-1.91 0-1.184-.55-1.905-1.46-1.905-.907 0-1.47.728-1.47 1.91 0 1.185.563 1.906 1.466 1.906zM46.998 17.16h1.588c-.258 1.22-1.37 1.98-2.953 1.98-1.97 0-3.13-1.242-3.13-3.34 0-2.103 1.184-3.404 3.106-3.404 1.904 0 3.03 1.213 3.03 3.264v.522h-4.437v.088c.024.96.586 1.558 1.477 1.558.674 0 1.136-.24 1.318-.668zm-1.383-3.457c-.79 0-1.347.55-1.406 1.39h2.753c-.035-.857-.55-1.39-1.348-1.39zM34.025 10.54h3.33c2.512 0 3.965 1.523 3.965 4.17 0 2.75-1.435 4.29-3.966 4.29h-3.33v-8.46zm1.77 1.51v5.438h1.277c1.565 0 2.444-.96 2.444-2.748 0-1.71-.91-2.69-2.444-2.69h-1.277z" fill="#FFF"/><path fill="url(#a)" fill-rule="nonzero" d="M17.362 8l7.362 13H10"/></g></svg>
