<?xml version="1.0" encoding="UTF-8" standalone="no"?>
<svg width="147px" height="32px" viewBox="0 0 147 32" version="1.1" xmlns="http://www.w3.org/2000/svg" xmlns:xlink="http://www.w3.org/1999/xlink" xmlns:sketch="http://www.bohemiancoding.com/sketch/ns">
    <!-- Generator: Sketch 3.3.2 (12043) - http://www.bohemiancoding.com/sketch -->
    <title>button</title>
    <desc>Created with Sketch.</desc>
    <defs></defs>
    <g id="Page-1" stroke="none" stroke-width="1" fill="none" fill-rule="evenodd" sketch:type="MSPage">
        <rect id="Rectangle-1" fill="#000000" sketch:type="MSShapeGroup" x="0" y="0" width="147" height="32"></rect>
        <path d="M8,25.4281915 L28.5,25.4281915 L18.25,7 L8,25.4281915 Z M10.862367,23.7652926 L24.2473404,23.7652926 L17.650266,11.7433511 L10.862367,23.7652926 Z" id="Path-9" fill="#FFFFFF" sketch:type="MSShapeGroup"></path>
        <path d="M36,22 L36,10.625 L39.359375,10.625 C40.3645884,10.625 41.2565065,10.8489561 42.0351562,11.296875 C42.813806,11.7447939 43.4166645,12.3802042 43.84375,13.203125 C44.2708355,14.0260458 44.484375,14.9687447 44.484375,16.03125 L44.484375,16.6015625 C44.484375,17.6796929 44.2695334,18.6276001 43.8398438,19.4453125 C43.4101541,20.2630249 42.7981811,20.893227 42.0039062,21.3359375 C41.2096314,21.778648 40.2994843,22 39.2734375,22 L36,22 Z M37.9765625,12.21875 L37.9765625,20.421875 L39.265625,20.421875 C40.3020885,20.421875 41.0976535,20.0976595 41.6523438,19.4492188 C42.207034,18.800778 42.4895833,17.8697977 42.5,16.65625 L42.5,16.0234375 C42.5,14.7890563 42.2317735,13.8463574 41.6953125,13.1953125 C41.1588515,12.5442676 40.3802134,12.21875 39.359375,12.21875 L37.9765625,12.21875 Z M50.2884838,22.15625 C49.0853528,22.15625 48.1101021,21.7773475 47.3627025,21.0195312 C46.615303,20.261715 46.2416088,19.2526105 46.2416088,17.9921875 L46.2416088,17.7578125 C46.2416088,16.9140583 46.4043676,16.1601596 46.72989,15.4960938 C47.0554125,14.8320279 47.5124392,14.315106 48.1009838,13.9453125 C48.6895284,13.575519 49.3457718,13.390625 50.0697338,13.390625 C51.2207812,13.390625 52.1100952,13.7578088 52.7377025,14.4921875 C53.3653099,15.2265662 53.6791088,16.2656183 53.6791088,17.609375 L53.6791088,18.375 L48.1556713,18.375 C48.2129633,19.0729202 48.4460338,19.624998 48.85489,20.03125 C49.2637463,20.437502 49.778064,20.640625 50.3978588,20.640625 C51.2676548,20.640625 51.9759811,20.289066 52.5228588,19.5859375 L53.5462963,20.5625 C53.2077529,21.0677109 52.7559345,21.459634 52.1908275,21.7382812 C51.6257206,22.0169285 50.9916123,22.15625 50.2884838,22.15625 L50.2884838,22.15625 Z M50.0619213,14.9140625 C49.5410854,14.9140625 49.1205167,15.0963523 48.8002025,15.4609375 C48.4798884,15.8255227 48.2754634,16.3333301 48.1869213,16.984375 L51.8041088,16.984375 L51.8041088,16.84375 C51.7624419,16.2083302 51.5931728,15.7278662 51.2962963,15.4023438 C50.9994198,15.0768213 50.5879656,14.9140625 50.0619213,14.9140625 L50.0619213,14.9140625 Z M62.8504051,17.859375 C62.8504051,19.1666732 62.5535331,20.2096315 61.9597801,20.9882812 C61.3660271,21.766931 60.5691601,22.15625 59.5691551,22.15625 C58.6420671,22.15625 57.8998871,21.8515655 57.3425926,21.2421875 L57.3425926,25.25 L55.4441551,25.25 L55.4441551,13.546875 L57.1941551,13.546875 L57.2722801,14.40625 C57.8295746,13.7291633 58.5873795,13.390625 59.5457176,13.390625 C60.5769728,13.390625 61.3855584,13.7747357 61.9714988,14.5429688 C62.5574393,15.3112018 62.8504051,16.3775973 62.8504051,17.7421875 L62.8504051,17.859375 Z M60.9597801,17.6953125 C60.9597801,16.8515583 60.791813,16.1822941 60.4558738,15.6875 C60.1199347,15.1927059 59.6394707,14.9453125 59.0144676,14.9453125 C58.2384221,14.9453125 57.681136,15.2656218 57.3425926,15.90625 L57.3425926,19.65625 C57.6863443,20.3125033 58.2488387,20.640625 59.0300926,20.640625 C59.6342623,20.640625 60.1069138,20.3971379 60.4480613,19.9101562 C60.7892089,19.4231746 60.9597801,18.6849008 60.9597801,17.6953125 L60.9597801,17.6953125 Z M66.7717014,22 L64.8732639,22 L64.8732639,10 L66.7717014,10 L66.7717014,22 Z M68.7789352,17.6953125 C68.7789352,16.8671834 68.9429961,16.1210971 69.2711227,15.4570312 C69.5992493,14.7929654 70.0601822,14.2825539 70.6539352,13.9257812 C71.2476882,13.5690086 71.929973,13.390625 72.7008102,13.390625 C73.8414409,13.390625 74.7672129,13.7578088 75.4781539,14.4921875 C76.189095,15.2265662 76.5732057,16.2005148 76.6304977,17.4140625 L76.6383102,17.859375 C76.6383102,18.6927125 76.4781555,19.4374967 76.1578414,20.09375 C75.8375273,20.7500033 75.3791986,21.2578107 74.7828414,21.6171875 C74.1864843,21.9765643 73.4976891,22.15625 72.7164352,22.15625 C71.5237209,22.15625 70.5693034,21.7591186 69.8531539,20.9648438 C69.1370045,20.1705689 68.7789352,19.1119858 68.7789352,17.7890625 L68.7789352,17.6953125 Z M70.6773727,17.859375 C70.6773727,18.729171 70.8570584,19.4101538 71.2164352,19.9023438 C71.575812,20.3945337 72.075807,20.640625 72.7164352,20.640625 C73.3570634,20.640625 73.8557563,20.3906275 74.2125289,19.890625 C74.5693016,19.3906225 74.7476852,18.658859 74.7476852,17.6953125 C74.7476852,16.8411416 74.5640933,16.164065 74.1969039,15.6640625 C73.8297146,15.16406 73.3310217,14.9140625 72.7008102,14.9140625 C72.0810154,14.9140625 71.5888329,15.1601538 71.2242477,15.6523438 C70.8596625,16.1445337 70.6773727,16.8802034 70.6773727,17.859375 L70.6773727,17.859375 Z M81.379919,19.28125 L83.098669,13.546875 L85.1221065,13.546875 L81.7627315,23.28125 C81.2471039,24.7031321 80.3721127,25.4140625 79.1377315,25.4140625 C78.8616884,25.4140625 78.557004,25.367188 78.223669,25.2734375 L78.223669,23.8046875 L78.583044,23.828125 C79.0622131,23.828125 79.4228865,23.7408863 79.6650752,23.5664062 C79.907264,23.3919262 80.0986683,23.0989604 80.239294,22.6875 L80.5127315,21.9609375 L77.5439815,13.546875 L79.5908565,13.546875 L81.379919,19.28125 Z M92.8438536,11.5 L92.8438536,13.546875 L94.4219786,13.546875 L94.4219786,14.6640625 L92.8438536,14.6640625 L92.8438536,19.90625 C92.8438536,20.2447934 92.9141654,20.4986971 93.0547911,20.6679688 C93.1954168,20.8372404 93.4349977,20.921875 93.7735411,20.921875 C93.9402086,20.921875 94.169373,20.8906253 94.4610411,20.828125 L94.4610411,22 C94.0808309,22.1041672 93.7110429,22.15625 93.3516661,22.15625 C92.7058295,22.15625 92.2188552,21.9609395 91.8907286,21.5703125 C91.562602,21.1796855 91.3985411,20.6250036 91.3985411,19.90625 L91.3985411,14.6640625 L89.8594786,14.6640625 L89.8594786,13.546875 L91.3985411,13.546875 L91.3985411,11.5 L92.8438536,11.5 Z M95.8630544,17.6953125 C95.8630544,16.8671834 96.0258132,16.1223991 96.3513356,15.4609375 C96.6768581,14.7994759 97.1299786,14.2890643 97.7107106,13.9296875 C98.2914427,13.5703107 98.9541965,13.390625 99.6989919,13.390625 C100.850039,13.390625 101.78102,13.7890585 102.491961,14.5859375 C103.202902,15.3828165 103.558367,16.4427017 103.558367,17.765625 L103.558367,17.8671875 C103.558367,18.6901083 103.400816,19.4283821 103.085711,20.0820312 C102.770605,20.7356804 102.320089,21.2447898 101.734148,21.609375 C101.148208,21.9739602 100.475037,22.15625 99.7146169,22.15625 C98.5687778,22.15625 97.6404017,21.7578165 96.9294606,20.9609375 C96.2185196,20.1640585 95.8630544,19.1093816 95.8630544,17.796875 L95.8630544,17.6953125 Z M97.3161794,17.8671875 C97.3161794,18.8046922 97.5336251,19.5572888 97.9685231,20.125 C98.4034212,20.6927112 98.9854466,20.9765625 99.7146169,20.9765625 C100.448996,20.9765625 101.032323,20.688805 101.464617,20.1132812 C101.896911,19.5377575 102.113054,18.731776 102.113054,17.6953125 C102.113054,16.7682245 101.893005,16.01693 101.452898,15.4414062 C101.012792,14.8658825 100.428162,14.578125 99.6989919,14.578125 C98.9854467,14.578125 98.4099316,14.8619763 97.9724294,15.4296875 C97.5349272,15.9973987 97.3161794,16.8098905 97.3161794,17.8671875 L97.3161794,17.8671875 Z M111.284268,13.546875 L111.331143,14.609375 C111.97698,13.7968709 112.820722,13.390625 113.862393,13.390625 C115.648861,13.390625 116.549893,14.3984274 116.565518,16.4140625 L116.565518,22 L115.120206,22 L115.120206,16.40625 C115.114998,15.796872 114.975676,15.3463556 114.702237,15.0546875 C114.428798,14.7630194 114.003021,14.6171875 113.424893,14.6171875 C112.956141,14.6171875 112.544687,14.7421862 112.190518,14.9921875 C111.83635,15.2421888 111.560311,15.5703105 111.362393,15.9765625 L111.362393,22 L109.917081,22 L109.917081,13.546875 L111.284268,13.546875 Z M118.655032,17.6953125 C118.655032,16.8671834 118.817791,16.1223991 119.143313,15.4609375 C119.468836,14.7994759 119.921956,14.2890643 120.502688,13.9296875 C121.08342,13.5703107 121.746174,13.390625 122.490969,13.390625 C123.642017,13.390625 124.572997,13.7890585 125.283938,14.5859375 C125.994879,15.3828165 126.350344,16.4427017 126.350344,17.765625 L126.350344,17.8671875 C126.350344,18.6901083 126.192794,19.4283821 125.877688,20.0820312 C125.562582,20.7356804 125.112066,21.2447898 124.526126,21.609375 C123.940185,21.9739602 123.267015,22.15625 122.506594,22.15625 C121.360755,22.15625 120.432379,21.7578165 119.721438,20.9609375 C119.010497,20.1640585 118.655032,19.1093816 118.655032,17.796875 L118.655032,17.6953125 Z M120.108157,17.8671875 C120.108157,18.8046922 120.325603,19.5572888 120.760501,20.125 C121.195399,20.6927112 121.777424,20.9765625 122.506594,20.9765625 C123.240973,20.9765625 123.8243,20.688805 124.256594,20.1132812 C124.688888,19.5377575 124.905032,18.731776 124.905032,17.6953125 C124.905032,16.7682245 124.684982,16.01693 124.244876,15.4414062 C123.804769,14.8658825 123.22014,14.578125 122.490969,14.578125 C121.777424,14.578125 121.201909,14.8619763 120.764407,15.4296875 C120.326905,15.9973987 120.108157,16.8098905 120.108157,17.8671875 L120.108157,17.8671875 Z M135.939858,20.0078125 L137.564858,13.546875 L139.01017,13.546875 L136.549233,22 L135.377358,22 L133.32267,15.59375 L131.32267,22 L130.150795,22 L127.69767,13.546875 L129.13517,13.546875 L130.799233,19.875 L132.767983,13.546875 L133.932045,13.546875 L135.939858,20.0078125 Z" id="Deploy-to-now-Copy-2" fill="#FFFFFF" sketch:type="MSShapeGroup"></path>
    </g>
</svg>